<?xml version="1.0" encoding="UTF-8"?>
<svg id="Layer_1" data-name="Layer 1" xmlns="http://www.w3.org/2000/svg" xmlns:xlink="http://www.w3.org/1999/xlink" viewBox="0 0 949.33 478.23">
  <defs>
    <style>
      .cls-1 {
        fill: url(#linear-gradient);
      }

      .cls-1, .cls-2, .cls-3, .cls-4 {
        stroke-width: 0px;
      }

      .cls-2 {
        fill: #231f20;
      }

      .cls-3 {
        fill: #fff;
      }

      .cls-4 {
        fill: #fbb040;
      }
    </style>
    <linearGradient id="linear-gradient" x1="60.04" y1="316.91" x2="602.32" y2="316.91" gradientUnits="userSpaceOnUse">
      <stop offset="0" stop-color="#fbb040"/>
      <stop offset="1" stop-color="#ef4136"/>
    </linearGradient>
  </defs>
  <path class="cls-2" d="M949.24,229.51c-1.22-30.92-24.39-52.3-57.76-51.91-23.31.28-46.55,3.73-69.86,5.14-35.51,2.16-71.21,6.57-106.55,4.92-43.67-2.03-65.52-27.18-65.69-67.87-.12-27.76-.03-55.51-.08-83.27-.05-27.04-10.17-36.46-39.53-36.48-94.8-.05-189.6-.02-284.39-.01-62.56,0-125.12.01-187.68,0-34.54,0-69.08-.12-103.62.01C13.26.15,1.14,11.12.25,30.21c-.18,3.91-.22,7.83-.23,11.74C0,174.68,0,307.4,0,440.13c0,3.2-.04,6.42.28,9.6,1.68,16.95,12.87,27.11,31.36,28.28,5.73.36,11.51.15,17.26.15,187.68-.01,375.35-.01,563.03-.06,25.75,0,37.38-10.82,37.38-34.36,0-30.96-.9-61.95.5-92.86.56-12.38,4.1-25.53,9.99-36.63,9.97-18.81,29.86-25.54,51.04-28.8,38.57-5.93,76.4,1.63,114.52,5.1,26.18,2.39,52.72,4.56,78.86,3.12,21.55-1.19,36.29-14.99,41.86-34.7,2.67-9.45,3.55-19.67,3.17-29.46ZM911.02,262.35c-.54,1.3-1.23,2.59-2.36,3.59-2.5,2.19-6.54,2.47-10.16,2.26-13.35-.77-25.65-6.26-36.61-12.65-10.96-6.39-21.08-13.81-32.71-19.32,14.03-13.15,31.82-23.5,51.47-29.96,5.65-1.86,11.8-3.41,17.72-2.28,7.47,1.43,13.26,7.5,13.23,13.88-.03,5.53-3.85,8.35-8.1,11.93-5.14,4.32-2.65,3,2.13,8.02,6.45,6.76,8.79,16.33,5.39,24.54Z"/>
  <path class="cls-1" d="M602.32,331.52c-47.2-.7-94.15-1.38-140.86-2.03-46.71-.66-93.68-1.2-140.86-1.64-42.82-.44-85.28-.9-127.36-1.38-42.09-.48-84.55-.94-127.36-1.38l-5.84-20.04c44.26,0,88.19.02,131.74.07,43.53.04,87.46-.02,131.74-.2,44.26-.18,88.19-.52,131.74-1.05,43.53-.52,87.46-1.05,131.74-1.57l15.33,29.21Z"/>
  <path class="cls-3" d="M147.54,218.76c-10.57-.18-21.37-.44-32.42-.79-11.05-.35-21.85-1.14-32.42-2.36-1.22-.17-2.6-.33-4.13-.46-1.53-.13-2.9-.41-4.13-.85-2.53-.96-4.52-2.03-5.96-3.21-1.44-1.18-2.55-2.53-3.34-4.06-.79-1.53-1.35-3.23-1.7-5.11-.35-1.88-.65-4-.92-6.35-.79-6.11-1.4-12.25-1.83-18.4-.44-6.16-.65-12.33-.65-18.54,0-1.13.02-2.51.07-4.13.04-1.62.13-3.29.26-5.04.13-1.75.33-3.41.59-4.98.26-1.57.61-2.88,1.05-3.93,2.1-4.54,5.17-8.19,9.23-10.94s8.54-4.89,13.43-6.42c4.89-1.53,9.93-2.53,15.13-3.01,5.2-.48,9.98-.72,14.34-.72,9.34,0,18.69.92,28.03,2.75l1.05,28.03c-8.91-2.79-18.12-4.19-27.64-4.19-1.75,0-4.06.09-6.94.26-2.88.18-5.83.5-8.84.98-3.01.48-5.83,1.18-8.45,2.1-2.62.92-4.45,2.16-5.5,3.73-.52.79-.98,1.88-1.38,3.27-.39,1.4-.7,2.86-.92,4.39-.22,1.53-.37,3.04-.46,4.52-.09,1.49-.13,2.71-.13,3.67,0,2.01.15,4.39.46,7.14.31,2.75.68,5.57,1.11,8.45.44,2.88.96,5.63,1.57,8.25.61,2.62,1.27,4.76,1.96,6.42h23.19l-1.18-25.28c6.03.44,12.07.63,18.14.59,6.07-.04,12.12-.07,18.14-.07.61,7.42.96,14.8,1.05,22.14.09,7.34.13,14.72.13,22.14Z"/>
  <path class="cls-3" d="M259.01,164.8v2.03c0,.65-.04,1.33-.13,2.03-.09,1.22-.31,3.23-.65,6.03-.35,2.8-.83,5.7-1.44,8.71-.61,3.01-1.35,5.79-2.23,8.32-.87,2.53-1.83,4.15-2.88,4.85-.52.35-2.29.65-5.31.92-3.01.26-6.68.52-11,.79-4.32.26-9.02.48-14.08.65-5.07.18-9.89.33-14.47.46-4.58.13-8.6.24-12.05.33-3.45.09-5.74.13-6.88.13h-2.69c-1.27,0-2.6-.02-4-.07-1.4-.04-2.71-.11-3.93-.2-1.22-.09-2.1-.22-2.62-.39-1.22-.44-2.45-1.16-3.67-2.16-1.22-1-2.36-2.14-3.41-3.41-1.05-1.27-1.99-2.58-2.82-3.93-.83-1.35-1.42-2.64-1.77-3.86-.26-.96-.48-2.42-.65-4.39-.18-1.96-.31-4.02-.39-6.16-.09-2.14-.15-4.21-.2-6.22-.04-2.01-.07-3.54-.07-4.58,0-1.66.04-3.95.13-6.88.09-2.92.35-5.91.79-8.97.44-3.06,1.07-5.91,1.9-8.58.83-2.66,2.03-4.52,3.6-5.57.7-.44,2.01-.83,3.93-1.18,1.92-.35,4.19-.65,6.81-.92s5.41-.46,8.38-.59c2.97-.13,5.87-.22,8.71-.26,2.84-.04,5.48-.07,7.92-.07s4.41.05,5.89.13c1.31.09,3.19.15,5.63.2,2.44.05,5.17.11,8.19.2,3.01.09,6.13.24,9.37.46,3.23.22,6.24.5,9.04.85,2.79.35,5.26.81,7.4,1.38,2.14.57,3.56,1.24,4.26,2.03,1.13,1.22,2.05,3.06,2.75,5.5.7,2.45,1.24,5.04,1.64,7.79.39,2.75.65,5.46.79,8.12.13,2.67.2,4.83.2,6.48ZM231.24,167.55c0-1.05-.04-2.27-.13-3.67-.09-1.4-.22-2.82-.39-4.26-.18-1.44-.44-2.84-.79-4.19-.35-1.35-.79-2.47-1.31-3.34-.7-1.13-2.05-2.01-4.06-2.62-2.01-.61-4.21-1.07-6.61-1.38-2.4-.31-4.76-.5-7.07-.59-2.31-.09-4.04-.13-5.17-.13-.61,0-1.7.02-3.27.07-1.57.05-3.21.11-4.91.2-1.7.09-3.3.24-4.78.46-1.49.22-2.45.46-2.88.72-.79.52-1.4,1.33-1.83,2.42-.44,1.09-.77,2.29-.98,3.6-.22,1.31-.35,2.6-.39,3.86-.04,1.27-.07,2.29-.07,3.08s.07,2.21.2,4.26c.13,2.05.31,4.24.52,6.55.22,2.31.5,4.43.85,6.35.35,1.92.79,3.14,1.31,3.67.61.7,1.77,1.27,3.47,1.7,1.7.44,3.54.81,5.5,1.11,1.96.31,3.86.52,5.7.65s3.14.2,3.93.2c1.4,0,3.06-.04,4.98-.13,1.92-.09,3.86-.31,5.83-.65,1.96-.35,3.82-.83,5.57-1.44,1.75-.61,3.14-1.44,4.19-2.49.61-.61,1.09-1.53,1.44-2.75.35-1.22.61-2.53.79-3.93.17-1.4.28-2.77.33-4.13.04-1.35.07-2.42.07-3.21Z"/>
  <path class="cls-3" d="M358.56,170.3c0,3.67-.02,7.31-.07,10.94-.04,3.62-.07,7.27-.07,10.94-.09,1.92-.11,3.89-.07,5.89.04,2.01-.02,4.02-.2,6.03-.26,1.92-.52,3.95-.79,6.09-.26,2.14-.7,4.26-1.31,6.35-.61,2.1-1.42,4.06-2.42,5.89-1,1.83-2.34,3.41-4,4.72-.44.35-1.31.65-2.62.92-1.31.26-2.84.52-4.58.79-1.75.26-3.62.48-5.63.65-2.01.17-3.93.33-5.76.46s-3.49.26-4.98.39c-1.49.13-2.53.2-3.14.2-5.5.17-10.94.31-16.31.39-5.37.09-10.81.13-16.31.13h-8.38c-.18-1.49-.35-3.01-.52-4.58-.18-1.57-.26-3.14-.26-4.72,0-1.75-.18-3.56-.52-5.44-.35-1.88-.74-3.73-1.18-5.57l8.65.13c.52,0,1.99-.02,4.39-.07,2.4-.04,5.22-.09,8.45-.13,3.23-.04,6.7-.13,10.41-.26,3.71-.13,7.14-.33,10.28-.59s5.83-.57,8.06-.92c2.23-.35,3.47-.74,3.73-1.18.7-1.13,1.13-2.42,1.31-3.86.17-1.44.26-2.82.26-4.13,0-.7-.02-1.42-.07-2.16-.04-.74-.11-1.46-.2-2.16-4.89.35-9.74.65-14.54.92-4.8.26-9.69.39-14.67.39h-4.26c-1.7,0-3.45-.04-5.24-.13-1.79-.09-3.54-.22-5.24-.39-1.7-.17-3.08-.44-4.13-.79-1.75-.52-3.52-1.11-5.31-1.77-1.79-.65-3.47-1.46-5.04-2.42-1.57-.96-2.95-2.12-4.13-3.47-1.18-1.35-1.99-2.99-2.42-4.91-.26-.96-.42-2.01-.46-3.14-.04-1.13-.07-2.18-.07-3.14,0-2.44.13-5.54.39-9.3.26-3.75.72-7.58,1.38-11.46.65-3.88,1.53-7.55,2.62-11,1.09-3.45,2.47-6.05,4.13-7.79.96-1.05,2.51-1.96,4.65-2.75,2.14-.79,4.56-1.44,7.27-1.96,2.71-.52,5.57-.98,8.58-1.38s5.96-.68,8.84-.85c2.88-.17,5.52-.31,7.92-.39,2.4-.09,4.3-.13,5.7-.13,4.89,0,9.78.13,14.67.39l.92-8.38,22.01,3.27c.09,7.6.15,15.15.2,22.66.04,7.51.07,15.11.07,22.79ZM335.38,167.81c0-2.79-.04-5.52-.13-8.19-.09-2.66-.22-5.39-.39-8.19-3.84-.87-7.69-1.57-11.53-2.1-3.84-.52-7.77-.79-11.79-.79-.7,0-1.75.05-3.14.13-1.4.09-2.86.24-4.39.46-1.53.22-2.95.52-4.26.92-1.31.39-2.23.85-2.75,1.38-.79.87-1.27,1.88-1.44,3.01-.18,1.14-.26,2.27-.26,3.41,0,.96.11,2.42.33,4.39.22,1.96.5,4,.85,6.09.35,2.1.79,4.06,1.31,5.89.52,1.83,1.05,3.1,1.57,3.8.52.7,1.18,1.22,1.96,1.57.79.35,1.64.59,2.55.72s1.83.22,2.75.26c.92.04,1.72.07,2.42.07,1.75,0,3.86-.07,6.35-.2s4.98-.37,7.47-.72c2.49-.35,4.82-.85,7.01-1.51,2.18-.65,3.84-1.55,4.98-2.69.17-.09.31-.52.39-1.31.09-.79.13-1.62.13-2.49v-3.93Z"/>
  <path class="cls-3" d="M469.25,164.8v2.03c0,.65-.04,1.33-.13,2.03-.09,1.22-.31,3.23-.65,6.03-.35,2.8-.83,5.7-1.44,8.71-.61,3.01-1.35,5.79-2.23,8.32-.87,2.53-1.83,4.15-2.88,4.85-.52.35-2.29.65-5.31.92-3.01.26-6.68.52-11,.79-4.32.26-9.02.48-14.08.65-5.07.18-9.89.33-14.47.46-4.58.13-8.6.24-12.05.33-3.45.09-5.74.13-6.88.13h-2.69c-1.27,0-2.6-.02-4-.07-1.4-.04-2.71-.11-3.93-.2-1.22-.09-2.1-.22-2.62-.39-1.22-.44-2.45-1.16-3.67-2.16-1.22-1-2.36-2.14-3.41-3.41-1.05-1.27-1.99-2.58-2.82-3.93-.83-1.35-1.42-2.64-1.77-3.86-.26-.96-.48-2.42-.65-4.39-.18-1.96-.31-4.02-.39-6.16-.09-2.14-.15-4.21-.2-6.22-.04-2.01-.07-3.54-.07-4.58,0-1.66.04-3.95.13-6.88.09-2.92.35-5.91.79-8.97.44-3.06,1.07-5.91,1.9-8.58.83-2.66,2.03-4.52,3.6-5.57.7-.44,2.01-.83,3.93-1.18,1.92-.35,4.19-.65,6.81-.92s5.41-.46,8.38-.59c2.97-.13,5.87-.22,8.71-.26,2.84-.04,5.48-.07,7.92-.07s4.41.05,5.89.13c1.31.09,3.19.15,5.63.2,2.44.05,5.17.11,8.19.2,3.01.09,6.13.24,9.37.46,3.23.22,6.24.5,9.04.85,2.79.35,5.26.81,7.4,1.38,2.14.57,3.56,1.24,4.26,2.03,1.13,1.22,2.05,3.06,2.75,5.5.7,2.45,1.24,5.04,1.64,7.79s.65,5.46.79,8.12c.13,2.67.2,4.83.2,6.48ZM441.48,167.55c0-1.05-.04-2.27-.13-3.67-.09-1.4-.22-2.82-.39-4.26-.18-1.44-.44-2.84-.79-4.19-.35-1.35-.79-2.47-1.31-3.34-.7-1.13-2.05-2.01-4.06-2.62-2.01-.61-4.21-1.07-6.61-1.38-2.4-.31-4.76-.5-7.07-.59-2.31-.09-4.04-.13-5.17-.13-.61,0-1.7.02-3.27.07-1.57.05-3.21.11-4.91.2-1.7.09-3.3.24-4.78.46-1.49.22-2.45.46-2.88.72-.79.52-1.4,1.33-1.83,2.42-.44,1.09-.77,2.29-.98,3.6-.22,1.31-.35,2.6-.39,3.86-.04,1.27-.07,2.29-.07,3.08s.07,2.21.2,4.26c.13,2.05.31,4.24.52,6.55.22,2.31.5,4.43.85,6.35.35,1.92.79,3.14,1.31,3.67.61.7,1.77,1.27,3.47,1.7,1.7.44,3.54.81,5.5,1.11,1.96.31,3.86.52,5.7.65s3.14.2,3.93.2c1.4,0,3.06-.04,4.98-.13,1.92-.09,3.86-.31,5.83-.65,1.96-.35,3.82-.83,5.57-1.44,1.75-.61,3.14-1.44,4.19-2.49.61-.61,1.09-1.53,1.44-2.75.35-1.22.61-2.53.79-3.93.17-1.4.28-2.77.33-4.13.04-1.35.07-2.42.07-3.21Z"/>
  <path class="cls-4" d="M512.87,110.69c0,4.42-.99,8.62-2.96,12.63-1.98,4.01-4.01,7.87-6.1,11.59h-19.16c1.16-1.39,2.38-2.81,3.66-4.27,1.28-1.45,2.44-2.96,3.48-4.53,1.05-1.57,1.89-3.22,2.53-4.97.64-1.74.96-3.6.96-5.58v-1.92l-16.55-.35c-.7-1.63-1.42-3.8-2.18-6.53-.76-2.73-1.13-5.02-1.13-6.88,0-2.32.58-4.67,1.74-7.06,1.16-2.38,2.55-4.5,4.18-6.36l27.53.35c1.28,3.83,2.26,7.75,2.96,11.76.7,4.01,1.05,8.04,1.05,12.11Z"/>
  <path class="cls-3" d="M594.35,125.76l-.79,17.03c-2.71-.17-5.42-.31-8.12-.39-2.71-.09-5.42-.13-8.12-.13-1.14,0-2.75.02-4.85.07-2.1.05-4.43.11-7.01.2-2.58.09-5.22.22-7.92.39-2.71.18-5.2.35-7.47.52-2.27.18-4.19.39-5.76.65s-2.53.52-2.88.79c-1.14,1.14-1.7,2.45-1.7,3.93,0,.96.26,1.75.79,2.36.17.26,1.13.48,2.88.65,1.75.18,3.89.33,6.42.46,2.53.13,5.31.22,8.32.26,3.01.05,5.89.09,8.65.13,2.75.05,5.2.11,7.34.2,2.14.09,3.65.18,4.52.26,3.32.44,5.96,1.4,7.92,2.88,1.96,1.49,3.47,3.34,4.52,5.57,1.05,2.23,1.72,4.74,2.03,7.53.31,2.8.46,5.63.46,8.51,0,1.4-.11,3.06-.33,4.98-.22,1.92-.55,3.84-.98,5.76-.44,1.92-1.07,3.71-1.9,5.37-.83,1.66-1.81,2.97-2.95,3.93-1.31,1.05-3.43,1.92-6.35,2.62-2.93.7-6.07,1.27-9.43,1.7-3.36.44-6.61.74-9.76.92-3.14.18-5.55.26-7.2.26-5.76,0-11.53-.33-17.29-.98s-11.48-1.38-17.16-2.16v-25.02c5.5,1.14,11.02,1.79,16.57,1.96,5.54.18,11.11.48,16.7.92,1.13.09,2.86.15,5.17.2,2.31.04,4.65,0,7.01-.13s4.5-.41,6.42-.85c1.92-.44,3.1-1.05,3.54-1.83.17-.26.26-.57.26-.92v-.92c0-.7-.07-1.59-.2-2.69-.13-1.09-.42-1.94-.85-2.55-.09-.09-.39-.15-.92-.2-.52-.04-.83-.07-.92-.07-4.89-.26-9.78-.41-14.67-.46-4.89-.04-9.82-.28-14.8-.72-2.01-.17-4.04-.37-6.09-.59-2.05-.22-4.08-.54-6.09-.98-1.66-.35-3.17-.74-4.52-1.18-1.35-.44-2.53-1-3.54-1.7-1-.7-1.86-1.59-2.55-2.69-.7-1.09-1.18-2.55-1.44-4.39-.18-.61-.26-1.2-.26-1.77v-1.9c0-1.57.09-3.36.26-5.37.17-2.01.5-4.02.98-6.03.48-2.01,1.09-3.91,1.83-5.7.74-1.79,1.72-3.25,2.95-4.39.79-.79,2.18-1.44,4.19-1.96,2.01-.52,4.32-.98,6.94-1.38s5.41-.72,8.38-.98c2.97-.26,5.83-.46,8.58-.59s5.24-.22,7.47-.26c2.23-.04,3.91-.07,5.04-.07,4.89,0,9.71.09,14.47.26,4.76.18,9.5.39,14.21.65Z"/>
  <g>
    <path class="cls-3" d="M83.33,245.78l-1.24,9.36c-.43-.12-.86-.2-1.29-.24s-.86-.07-1.29-.07c-1.09,0-2.14.15-3.13.43s-1.87.73-2.63,1.32-1.37,1.33-1.82,2.22c-.45.89-.68,1.93-.68,3.13,0,.77.12,1.43.36,2,.24.56.59,1.03,1.03,1.4s.97.64,1.58.82c.61.18,1.27.27,2,.27.55,0,1.12-.06,1.71-.18s1.18-.27,1.75-.47,1.14-.41,1.69-.67,1.05-.51,1.51-.78l-.89,10.43c-.58.3-1.2.56-1.88.79-.67.23-1.36.43-2.07.6-.71.17-1.42.3-2.13.39-.71.09-1.39.13-2.04.13-1.88,0-3.63-.35-5.26-1.04-1.63-.7-3.04-1.65-4.24-2.86-1.2-1.21-2.14-2.64-2.83-4.29s-1.03-3.43-1.03-5.34c0-2.53.36-4.91,1.09-7.16.73-2.24,1.79-4.2,3.19-5.89,1.41-1.69,3.15-3.02,5.23-3.99,2.08-.98,4.47-1.46,7.18-1.46,1.02,0,2.07.08,3.14.24,1.07.16,2.07.47,2.98.91Z"/>
    <path class="cls-3" d="M118.25,261.31c0,1.35-.15,2.64-.47,3.89-.31,1.25-.76,2.42-1.34,3.52s-1.3,2.09-2.13,3c-.84.91-1.78,1.69-2.82,2.34-1.04.65-2.18,1.16-3.41,1.52-1.23.36-2.53.54-3.9.54s-2.6-.17-3.81-.51-2.33-.82-3.38-1.43c-1.05-.61-2-1.35-2.85-2.22s-1.58-1.83-2.17-2.88c-.6-1.06-1.06-2.19-1.4-3.4-.33-1.21-.5-2.48-.5-3.79s.16-2.55.47-3.78c.31-1.23.76-2.4,1.34-3.49s1.29-2.1,2.12-3.02c.83-.92,1.76-1.71,2.78-2.37s2.14-1.18,3.34-1.55c1.2-.37,2.46-.56,3.79-.56,2.15,0,4.1.33,5.87,1,1.77.67,3.28,1.61,4.53,2.85,1.25,1.24,2.22,2.73,2.91,4.48.69,1.75,1.03,3.71,1.03,5.87ZM108.4,261.88c0-.64-.09-1.25-.28-1.85s-.45-1.13-.81-1.6c-.36-.46-.79-.84-1.32-1.13-.53-.29-1.13-.43-1.81-.43s-1.32.13-1.86.38c-.55.25-1.02.6-1.41,1.03-.39.44-.69.95-.9,1.53-.21.58-.31,1.2-.31,1.85s.09,1.24.27,1.86c.18.62.44,1.18.8,1.69.36.5.8.91,1.32,1.22.52.31,1.13.47,1.83.47s1.32-.14,1.88-.41c.55-.27,1.02-.64,1.41-1.11s.68-1,.89-1.61c.21-.61.31-1.23.31-1.88Z"/>
    <path class="cls-3" d="M160.46,244.62l-2.04,32.57-10.12.44.09-17.17-4.57,13.84h-3.9l-3.51-12.38-.04,14.38-10.25.31.44-30.66,11.4-.44,4.53,14.69,6.04-15.57h11.94Z"/>
    <path class="cls-3" d="M202.74,244.62l-2.04,32.57-10.12.44.09-17.17-4.57,13.84h-3.9l-3.51-12.38-.04,14.38-10.25.31.44-30.66,11.4-.44,4.53,14.69,6.04-15.57h11.94Z"/>
    <path class="cls-3" d="M237.26,252.3c0,1.09-.05,2.3-.16,3.62-.1,1.32-.27,2.68-.51,4.08-.24,1.41-.54,2.83-.92,4.27-.38,1.44-.85,2.83-1.41,4.16-.56,1.33-1.22,2.58-1.96,3.74-.75,1.16-1.61,2.18-2.58,3.04-.97.87-2.05,1.55-3.25,2.04-1.2.5-2.53.74-3.99.74-1.72,0-3.21-.28-4.47-.83-1.26-.55-2.35-1.3-3.25-2.24-.9-.94-1.64-2.03-2.22-3.28-.58-1.25-1.03-2.58-1.35-3.97-.33-1.4-.55-2.82-.68-4.28-.13-1.46-.19-2.86-.19-4.2,0-2.07.1-4.14.31-6.2.21-2.06.5-4.12.89-6.18l10.38.4c-.4,2.32-.74,4.66-1.03,7-.29,2.34-.43,4.7-.43,7.07,0,.25.01.63.03,1.12.02.5.06,1.05.12,1.67.06.61.14,1.24.25,1.88s.26,1.23.45,1.76c.19.53.42.97.7,1.31.27.34.6.51.97.51.43,0,.81-.2,1.15-.61.34-.41.64-.95.9-1.63.26-.68.49-1.46.68-2.35s.36-1.81.49-2.77c.13-.96.24-1.92.32-2.88.08-.96.15-1.85.2-2.68.05-.83.09-1.56.1-2.2.01-.64.02-1.11.02-1.42,0-1.15-.02-2.3-.06-3.45s-.09-2.29-.17-3.43h10.38c.18,2.04.27,4.11.27,6.21Z"/>
    <path class="cls-3" d="M275.57,245.15l-1.6,30.09-11.62,1.06-6.21-16.11-.98,16.42h-9.98l.8-31.46,11.09-.53,7.67,15.97.36-15.09,10.47-.36Z"/>
    <path class="cls-3" d="M295.7,245.73l-2.44,30.22-9.36.49v-30.08l11.8-.62Z"/>
    <path class="cls-3" d="M327.05,245.24l-.22,9.4-6.61.27-1.69,21.03-9.36.49.04-21.03-6.61.36.27-10.47,24.18-.04Z"/>
    <path class="cls-3" d="M363.14,246.93l-12.2,17.04-.58,13.89h-10.52l.27-13.8-6.35-16.46,11.31-1.42,1.78,9.59,5.64-9.59,10.65.76Z"/>
    <path class="cls-3" d="M411.93,245.2l-10.69,14.78,9.01,15.71-10.29,1.82-6.74-9.59-.36,10.03-9.23.35.71-33.99,10.34.58-.8,10.03,6.88-10.61,11.18.89Z"/>
    <path class="cls-3" d="M430.05,245.73l-2.44,30.22-9.36.49v-30.08l11.8-.62Z"/>
    <path class="cls-3" d="M461.4,245.24l-.22,9.4-6.61.27-1.69,21.03-9.36.49.04-21.03-6.61.36.27-10.47,24.18-.04Z"/>
    <path class="cls-3" d="M490.28,245.78l-1.24,9.36c-.43-.12-.86-.2-1.29-.24s-.86-.07-1.29-.07c-1.09,0-2.14.15-3.13.43s-1.87.73-2.63,1.32-1.37,1.33-1.82,2.22c-.45.89-.68,1.93-.68,3.13,0,.77.12,1.43.36,2,.24.56.59,1.03,1.03,1.4s.97.64,1.58.82c.61.18,1.27.27,2,.27.55,0,1.12-.06,1.71-.18s1.18-.27,1.75-.47,1.14-.41,1.69-.67,1.05-.51,1.51-.78l-.89,10.43c-.58.3-1.2.56-1.88.79-.67.23-1.36.43-2.07.6-.71.17-1.42.3-2.13.39-.71.09-1.39.13-2.04.13-1.88,0-3.63-.35-5.26-1.04-1.63-.7-3.04-1.65-4.24-2.86-1.2-1.21-2.14-2.64-2.83-4.29s-1.03-3.43-1.03-5.34c0-2.53.36-4.91,1.09-7.16s1.79-4.2,3.19-5.89c1.41-1.69,3.15-3.02,5.23-3.99,2.08-.98,4.47-1.46,7.18-1.46,1.02,0,2.07.08,3.14.24,1.07.16,2.07.47,2.98.91Z"/>
    <path class="cls-3" d="M524.37,276.97l-11.09.53-.09-10.25h-5.1l-.31,9.72h-9.94l.84-31.19,10.56.49-.67,15.93h4.92l.04-17.13,10.12.27.71,31.64Z"/>
    <path class="cls-3" d="M553.85,244.98c-.09,1.39-.17,2.77-.24,4.13-.07,1.36-.17,2.74-.29,4.13l-9.41.49-.22,2.79h6.61l-.49,6.88-6.65.22-.22,3.24h9.4c-.09,1.63-.18,3.24-.28,4.85-.09,1.61-.18,3.21-.25,4.82l-19.12.44.71-31.99h20.46Z"/>
    <path class="cls-3" d="M591.14,245.15l-1.6,30.09-11.62,1.06-6.21-16.11-.98,16.42h-9.98l.8-31.46,11.09-.53,7.67,15.97.36-15.09,10.47-.36Z"/>
  </g>
  <g>
    <path class="cls-3" d="M75.28,370.15c1.19,1.29,1.78,3,1.78,5.15v14.3c0,.28-.14.42-.42.42h-2.16c-.28,0-.42-.14-.42-.42v-1.27c0-.06-.02-.09-.06-.11-.04-.01-.09,0-.15.06-1.05,1.39-2.62,2.08-4.71,2.08-1.56,0-2.91-.45-4.05-1.34s-1.72-2.47-1.72-4.73c0-2.4.69-4.16,2.08-5.28s3.21-1.68,5.47-1.68h2.97c.11,0,.17-.06.17-.17v-1.65c0-1.41-.33-2.55-.98-3.39-.65-.85-1.53-1.27-2.63-1.27-.85,0-1.58.28-2.18.85-.61.57-.97,1.29-1.08,2.16,0,.28-.14.42-.42.42l-2.38-.04c-.14,0-.25-.04-.32-.13s-.09-.18-.06-.3c.14-1.67.82-3.02,2.04-4.05s2.72-1.55,4.5-1.55c1.98,0,3.56.64,4.75,1.93ZM72.78,386.61c.85-.75,1.27-1.79,1.27-3.12v-3.56c0-.11-.06-.17-.17-.17h-3.01c-1.36,0-2.43.36-3.22,1.08-.79.72-1.19,1.79-1.19,3.2,0,1.24.3,2.17.91,2.78.61.61,1.41.91,2.4.91,1.16,0,2.16-.37,3.01-1.12Z"/>
    <path class="cls-3" d="M92.29,370.81h-3.22c-.11,0-.17.06-.17.17v12.98c0,1.3.23,2.2.68,2.69.45.5,1.15.73,2.08.7h.42c.28,0,.42.14.42.42v1.82c0,.28-.14.42-.42.42h-1.06c-1.67,0-2.93-.36-3.8-1.08-.86-.72-1.29-2.08-1.29-4.09v-13.87c0-.11-.06-.17-.17-.17h-1.65c-.28,0-.42-.14-.42-.42v-1.4c0-.28.14-.42.42-.42h1.65c.11,0,.17-.06.17-.17v-4.75c0-.28.14-.42.42-.42h2.12c.28,0,.42.14.42.42v4.75c0,.11.06.17.17.17h3.22c.28,0,.42.14.42.42v1.4c0,.28-.14.42-.42.42Z"/>
    <path class="cls-3" d="M118.89,370.81h-3.22c-.11,0-.17.06-.17.17v12.98c0,1.3.23,2.2.68,2.69.45.5,1.15.73,2.08.7h.42c.28,0,.42.14.42.42v1.82c0,.28-.14.42-.42.42h-1.06c-1.67,0-2.93-.36-3.8-1.08-.86-.72-1.29-2.08-1.29-4.09v-13.87c0-.11-.06-.17-.17-.17h-1.65c-.28,0-.42-.14-.42-.42v-1.4c0-.28.14-.42.42-.42h1.65c.11,0,.17-.06.17-.17v-4.75c0-.28.14-.42.42-.42h2.12c.28,0,.42.14.42.42v4.75c0,.11.06.17.17.17h3.22c.28,0,.42.14.42.42v1.4c0,.28-.14.42-.42.42Z"/>
    <path class="cls-3" d="M138.13,370.04c.95,1.19,1.42,2.84,1.42,4.96v14.59c0,.28-.14.42-.42.42h-2.16c-.28,0-.42-.14-.42-.42v-14.34c0-1.38-.3-2.46-.91-3.22-.61-.76-1.45-1.15-2.52-1.15-1.13,0-2.02.41-2.65,1.23-.64.82-.96,1.94-.96,3.35v14.13c0,.28-.14.42-.42.42h-2.16c-.28,0-.42-.14-.42-.42v-28.85c0-.28.14-.42.42-.42h2.16c.28,0,.42.14.42.42v9.59c0,.06.03.1.08.13.06.03.1,0,.13-.08.51-.71,1.15-1.24,1.93-1.59.78-.35,1.6-.53,2.48-.53,1.73,0,3.06.59,4.01,1.78Z"/>
    <path class="cls-3" d="M160.25,380.44h-9.67c-.11,0-.17.06-.17.17v3.1c0,1.19.33,2.16,1,2.91.66.75,1.53,1.12,2.61,1.12.91,0,1.68-.28,2.31-.83.64-.55,1.05-1.27,1.25-2.14.08-.25.24-.38.47-.38l2.12.08c.11,0,.21.04.3.13.08.08.11.2.08.34-.23,1.67-.91,2.99-2.06,3.97s-2.64,1.46-4.48,1.46c-2.01,0-3.61-.59-4.82-1.78s-1.8-2.76-1.8-4.71v-9.16c0-1.92.6-3.49,1.8-4.69,1.2-1.2,2.81-1.8,4.82-1.8s3.66.6,4.86,1.8c1.2,1.2,1.8,2.76,1.8,4.69v5.3c0,.28-.14.42-.42.42ZM151.41,371.97c-.66.75-1,1.73-1,2.95v2.84c0,.11.06.17.17.17h6.96c.11,0,.17-.06.17-.17v-2.84c0-1.22-.34-2.2-1.02-2.95s-1.57-1.12-2.67-1.12-1.95.38-2.61,1.12Z"/>
    <path class="cls-3" d="M192.05,370.04c.95,1.19,1.42,2.84,1.42,4.96v14.59c0,.28-.14.42-.42.42h-2.16c-.28,0-.42-.14-.42-.42v-14.34c0-1.38-.3-2.46-.91-3.22-.61-.76-1.45-1.15-2.52-1.15-1.13,0-2.02.41-2.65,1.23-.64.82-.96,1.94-.96,3.35v14.13c0,.28-.14.42-.42.42h-2.16c-.28,0-.42-.14-.42-.42v-28.85c0-.28.14-.42.42-.42h2.16c.28,0,.42.14.42.42v9.59c0,.06.03.1.08.13.06.03.1,0,.13-.08.51-.71,1.15-1.24,1.93-1.59.78-.35,1.6-.53,2.48-.53,1.73,0,3.06.59,4.01,1.78Z"/>
    <path class="cls-3" d="M214.17,380.44h-9.67c-.11,0-.17.06-.17.17v3.1c0,1.19.33,2.16,1,2.91.66.75,1.53,1.12,2.61,1.12.91,0,1.68-.28,2.31-.83.64-.55,1.05-1.27,1.25-2.14.08-.25.24-.38.47-.38l2.12.08c.11,0,.21.04.3.13.08.08.11.2.08.34-.23,1.67-.91,2.99-2.06,3.97s-2.64,1.46-4.48,1.46c-2.01,0-3.61-.59-4.82-1.78s-1.8-2.76-1.8-4.71v-9.16c0-1.92.6-3.49,1.8-4.69,1.2-1.2,2.81-1.8,4.82-1.8s3.66.6,4.86,1.8c1.2,1.2,1.8,2.76,1.8,4.69v5.3c0,.28-.14.42-.42.42ZM205.33,371.97c-.66.75-1,1.73-1,2.95v2.84c0,.11.06.17.17.17h6.96c.11,0,.17-.06.17-.17v-2.84c0-1.22-.34-2.2-1.02-2.95s-1.57-1.12-2.67-1.12-1.95.38-2.61,1.12Z"/>
    <path class="cls-3" d="M233.3,370.15c1.19,1.29,1.78,3,1.78,5.15v14.3c0,.28-.14.42-.42.42h-2.16c-.28,0-.42-.14-.42-.42v-1.27c0-.06-.02-.09-.06-.11-.04-.01-.09,0-.15.06-1.05,1.39-2.62,2.08-4.71,2.08-1.56,0-2.91-.45-4.05-1.34s-1.72-2.47-1.72-4.73c0-2.4.69-4.16,2.08-5.28s3.21-1.68,5.47-1.68h2.97c.11,0,.17-.06.17-.17v-1.65c0-1.41-.33-2.55-.98-3.39-.65-.85-1.53-1.27-2.63-1.27-.85,0-1.58.28-2.18.85-.61.57-.97,1.29-1.08,2.16,0,.28-.14.42-.42.42l-2.38-.04c-.14,0-.25-.04-.32-.13s-.09-.18-.06-.3c.14-1.67.82-3.02,2.04-4.05s2.72-1.55,4.5-1.55c1.98,0,3.56.64,4.75,1.93ZM230.8,386.61c.85-.75,1.27-1.79,1.27-3.12v-3.56c0-.11-.06-.17-.17-.17h-3.01c-1.36,0-2.43.36-3.22,1.08-.79.72-1.19,1.79-1.19,3.2,0,1.24.3,2.17.91,2.78.61.61,1.41.91,2.4.91,1.16,0,2.16-.37,3.01-1.12Z"/>
    <path class="cls-3" d="M252.27,368.81c.2.11.27.3.21.55l-.51,2.21c-.03.25-.2.34-.51.25-.34-.17-.76-.25-1.27-.25-.23,0-.4.01-.51.04-1.02.06-1.85.59-2.5,1.59-.65,1-.98,2.23-.98,3.67v12.73c0,.28-.14.42-.42.42h-2.16c-.28,0-.42-.14-.42-.42v-20.62c0-.28.14-.42.42-.42h2.16c.28,0,.42.14.42.42v2.54c0,.08.02.13.06.13s.09-.03.15-.08c.82-2.15,2.16-3.22,4.03-3.22.71,0,1.32.16,1.82.47Z"/>
    <path class="cls-3" d="M266.1,370.81h-3.22c-.11,0-.17.06-.17.17v12.98c0,1.3.23,2.2.68,2.69.45.5,1.15.73,2.08.7h.42c.28,0,.42.14.42.42v1.82c0,.28-.14.42-.42.42h-1.06c-1.67,0-2.93-.36-3.8-1.08-.86-.72-1.29-2.08-1.29-4.09v-13.87c0-.11-.06-.17-.17-.17h-1.65c-.28,0-.42-.14-.42-.42v-1.4c0-.28.14-.42.42-.42h1.65c.11,0,.17-.06.17-.17v-4.75c0-.28.14-.42.42-.42h2.12c.28,0,.42.14.42.42v4.75c0,.11.06.17.17.17h3.22c.28,0,.42.14.42.42v1.4c0,.28-.14.42-.42.42Z"/>
    <path class="cls-3" d="M286.91,388.58c-1.2-1.19-1.8-2.76-1.8-4.71v-9.12c0-1.92.61-3.49,1.82-4.71s2.83-1.82,4.84-1.82,3.66.61,4.88,1.82,1.82,2.79,1.82,4.71v9.12c0,1.95-.61,3.52-1.82,4.71s-2.84,1.78-4.88,1.78-3.66-.59-4.86-1.78ZM294.42,386.59c.69-.74,1.04-1.71,1.04-2.93v-8.74c0-1.22-.35-2.2-1.04-2.95-.69-.75-1.58-1.12-2.65-1.12s-1.95.38-2.63,1.12-1.02,1.73-1.02,2.95v8.74c0,1.22.34,2.19,1.02,2.93.68.74,1.55,1.1,2.63,1.1s1.96-.37,2.65-1.1Z"/>
    <path class="cls-3" d="M311.11,363.7c-.45.72-.68,1.85-.68,3.37v1.32c0,.11.06.17.17.17h3.27c.28,0,.42.14.42.42v1.4c0,.28-.14.42-.42.42h-3.27c-.11,0-.17.06-.17.17v18.62c0,.28-.14.42-.42.42h-2.12c-.28,0-.42-.14-.42-.42v-18.62c0-.11-.06-.17-.17-.17h-1.7c-.28,0-.42-.14-.42-.42v-1.4c0-.28.14-.42.42-.42h1.7c.11,0,.17-.06.17-.17v-1.36c0-2.46.45-4.24,1.36-5.35.91-1.1,2.42-1.65,4.54-1.65h.59c.28,0,.42.14.42.42l-.04,1.74c0,.28-.14.42-.42.42h-.51c-1.08,0-1.84.36-2.29,1.08Z"/>
    <path class="cls-3" d="M340.72,370.81h-3.22c-.11,0-.17.06-.17.17v12.98c0,1.3.23,2.2.68,2.69.45.5,1.15.73,2.08.7h.42c.28,0,.42.14.42.42v1.82c0,.28-.14.42-.42.42h-1.06c-1.67,0-2.93-.36-3.8-1.08-.86-.72-1.29-2.08-1.29-4.09v-13.87c0-.11-.06-.17-.17-.17h-1.65c-.28,0-.42-.14-.42-.42v-1.4c0-.28.14-.42.42-.42h1.65c.11,0,.17-.06.17-.17v-4.75c0-.28.14-.42.42-.42h2.12c.28,0,.42.14.42.42v4.75c0,.11.06.17.17.17h3.22c.28,0,.42.14.42.42v1.4c0,.28-.14.42-.42.42Z"/>
    <path class="cls-3" d="M359.96,370.04c.95,1.19,1.42,2.84,1.42,4.96v14.59c0,.28-.14.42-.42.42h-2.16c-.28,0-.42-.14-.42-.42v-14.34c0-1.38-.3-2.46-.91-3.22-.61-.76-1.45-1.15-2.52-1.15-1.13,0-2.02.41-2.65,1.23-.64.82-.96,1.94-.96,3.35v14.13c0,.28-.14.42-.42.42h-2.16c-.28,0-.42-.14-.42-.42v-28.85c0-.28.14-.42.42-.42h2.16c.28,0,.42.14.42.42v9.59c0,.06.03.1.08.13.06.03.1,0,.13-.08.51-.71,1.15-1.24,1.93-1.59.78-.35,1.6-.53,2.48-.53,1.73,0,3.06.59,4.01,1.78Z"/>
    <path class="cls-3" d="M382.08,380.44h-9.67c-.11,0-.17.06-.17.17v3.1c0,1.19.33,2.16,1,2.91.66.75,1.53,1.12,2.61,1.12.91,0,1.68-.28,2.31-.83.64-.55,1.05-1.27,1.25-2.14.08-.25.24-.38.47-.38l2.12.08c.11,0,.21.04.3.13.08.08.11.2.08.34-.23,1.67-.91,2.99-2.06,3.97s-2.64,1.46-4.48,1.46c-2.01,0-3.61-.59-4.82-1.78s-1.8-2.76-1.8-4.71v-9.16c0-1.92.6-3.49,1.8-4.69,1.2-1.2,2.81-1.8,4.82-1.8s3.66.6,4.86,1.8c1.2,1.2,1.8,2.76,1.8,4.69v5.3c0,.28-.14.42-.42.42ZM373.24,371.97c-.66.75-1,1.73-1,2.95v2.84c0,.11.06.17.17.17h6.96c.11,0,.17-.06.17-.17v-2.84c0-1.22-.34-2.2-1.02-2.95s-1.57-1.12-2.67-1.12-1.95.38-2.61,1.12Z"/>
    <path class="cls-3" d="M403.57,388.58c-1.2-1.19-1.8-2.76-1.8-4.71v-9.16c0-1.92.61-3.49,1.82-4.69,1.22-1.2,2.81-1.8,4.79-1.8,1.33,0,2.5.27,3.52.81,1.02.54,1.8,1.25,2.35,2.14.55.89.83,1.87.83,2.95v.42c0,.28-.14.42-.42.42l-2.16.08c-.28,0-.42-.14-.42-.42v-.3c0-.93-.35-1.75-1.04-2.44-.69-.69-1.58-1.04-2.65-1.04s-1.95.38-2.61,1.12-1,1.73-1,2.95v8.74c0,1.22.33,2.2,1,2.95.66.75,1.53,1.12,2.61,1.12s1.96-.35,2.65-1.04,1.04-1.51,1.04-2.44v-.3c0-.28.14-.42.42-.42l2.16.04c.28,0,.42.14.42.42v.47c0,1.7-.62,3.1-1.85,4.22s-2.85,1.68-4.86,1.68-3.61-.59-4.82-1.78Z"/>
    <path class="cls-3" d="M424.02,388.58c-1.2-1.19-1.8-2.76-1.8-4.71v-9.12c0-1.92.61-3.49,1.82-4.71s2.83-1.82,4.84-1.82,3.66.61,4.88,1.82,1.82,2.79,1.82,4.71v9.12c0,1.95-.61,3.52-1.82,4.71s-2.84,1.78-4.88,1.78-3.66-.59-4.86-1.78ZM431.53,386.59c.69-.74,1.04-1.71,1.04-2.93v-8.74c0-1.22-.35-2.2-1.04-2.95-.69-.75-1.58-1.12-2.65-1.12s-1.95.38-2.63,1.12-1.02,1.73-1.02,2.95v8.74c0,1.22.34,2.19,1.02,2.93.68.74,1.55,1.1,2.63,1.1s1.96-.37,2.65-1.1Z"/>
    <path class="cls-3" d="M464.81,370.13c.93,1.25,1.4,2.97,1.4,5.18v14.3c0,.28-.14.42-.42.42h-2.12c-.28,0-.42-.14-.42-.42v-14.04c0-1.44-.3-2.58-.91-3.42-.61-.83-1.41-1.25-2.4-1.25-1.08,0-1.92.41-2.54,1.23-.62.82-.93,1.94-.93,3.35v14.13c0,.28-.14.42-.42.42h-2.16c-.28,0-.42-.14-.42-.42v-14.04c0-1.44-.3-2.58-.91-3.42-.61-.83-1.39-1.25-2.35-1.25-1.08,0-1.93.41-2.57,1.23-.64.82-.95,1.94-.95,3.35v14.13c0,.28-.14.42-.42.42h-2.12c-.28,0-.42-.14-.42-.42v-20.62c0-.28.14-.42.42-.42h2.12c.28,0,.42.14.42.42v1.32c0,.06.02.09.06.11.04.01.09,0,.15-.06.54-.71,1.17-1.23,1.91-1.57.74-.34,1.51-.51,2.33-.51,1.08,0,2.01.26,2.8.79.79.52,1.4,1.27,1.82,2.23.03.06.07.08.13.08s.1-.04.13-.13c.51-1.02,1.2-1.77,2.08-2.25.88-.48,1.81-.72,2.8-.72,1.7,0,3.01.62,3.95,1.87Z"/>
    <path class="cls-3" d="M495.69,370.13c.93,1.25,1.4,2.97,1.4,5.18v14.3c0,.28-.14.42-.42.42h-2.12c-.28,0-.42-.14-.42-.42v-14.04c0-1.44-.3-2.58-.91-3.42-.61-.83-1.41-1.25-2.4-1.25-1.08,0-1.92.41-2.54,1.23-.62.82-.93,1.94-.93,3.35v14.13c0,.28-.14.42-.42.42h-2.16c-.28,0-.42-.14-.42-.42v-14.04c0-1.44-.3-2.58-.91-3.42-.61-.83-1.39-1.25-2.35-1.25-1.08,0-1.93.41-2.57,1.23-.64.82-.95,1.94-.95,3.35v14.13c0,.28-.14.42-.42.42h-2.12c-.28,0-.42-.14-.42-.42v-20.62c0-.28.14-.42.42-.42h2.12c.28,0,.42.14.42.42v1.32c0,.06.02.09.06.11.04.01.09,0,.15-.06.54-.71,1.17-1.23,1.91-1.57.74-.34,1.51-.51,2.33-.51,1.08,0,2.01.26,2.8.79.79.52,1.4,1.27,1.82,2.23.03.06.07.08.13.08s.1-.04.13-.13c.51-1.02,1.2-1.77,2.08-2.25.88-.48,1.81-.72,2.8-.72,1.7,0,3.01.62,3.95,1.87Z"/>
    <path class="cls-3" d="M515.67,368.56h2.16c.28,0,.42.14.42.42v20.62c0,.28-.14.42-.42.42h-2.16c-.28,0-.42-.14-.42-.42v-1.44c0-.08-.02-.13-.06-.13s-.09.03-.15.08c-.88,1.47-2.29,2.21-4.24,2.21-1.7,0-3.05-.52-4.05-1.55-1-1.03-1.51-2.59-1.51-4.69v-15.1c0-.28.14-.42.42-.42h2.16c.28,0,.42.14.42.42v14.42c0,1.42.29,2.48.87,3.2.58.72,1.42,1.08,2.52,1.08s2.02-.41,2.65-1.23c.64-.82.95-1.94.95-3.35v-14.13c0-.28.14-.42.42-.42Z"/>
    <path class="cls-3" d="M538.48,370.04c.95,1.19,1.42,2.84,1.42,4.96v14.59c0,.28-.14.42-.42.42h-2.16c-.28,0-.42-.14-.42-.42v-14.34c0-1.38-.3-2.46-.91-3.22-.61-.76-1.45-1.15-2.52-1.15-1.13,0-2.02.41-2.65,1.23-.64.82-.96,1.94-.96,3.35v14.13c0,.28-.14.42-.42.42h-2.16c-.28,0-.42-.14-.42-.42v-20.62c0-.28.14-.42.42-.42h2.16c.28,0,.42.14.42.42v1.36c0,.06.03.1.08.13.06.03.1,0,.13-.08.51-.71,1.15-1.24,1.93-1.59.78-.35,1.6-.53,2.48-.53,1.73,0,3.06.59,4.01,1.78Z"/>
    <path class="cls-3" d="M548.32,363.98c-.44-.45-.66-1.02-.66-1.7s.22-1.28.66-1.72c.44-.44,1.01-.66,1.72-.66s1.24.22,1.68.66.66,1.01.66,1.72-.22,1.25-.66,1.7-1,.68-1.68.68-1.28-.23-1.72-.68ZM548.55,389.6v-20.62c0-.28.14-.42.42-.42h2.16c.28,0,.42.14.42.42v20.62c0,.28-.14.42-.42.42h-2.16c-.28,0-.42-.14-.42-.42Z"/>
    <path class="cls-3" d="M567.56,370.81h-3.22c-.11,0-.17.06-.17.17v12.98c0,1.3.23,2.2.68,2.69.45.5,1.15.73,2.08.7h.42c.28,0,.42.14.42.42v1.82c0,.28-.14.42-.42.42h-1.06c-1.67,0-2.93-.36-3.8-1.08-.86-.72-1.29-2.08-1.29-4.09v-13.87c0-.11-.06-.17-.17-.17h-1.65c-.28,0-.42-.14-.42-.42v-1.4c0-.28.14-.42.42-.42h1.65c.11,0,.17-.06.17-.17v-4.75c0-.28.14-.42.42-.42h2.12c.28,0,.42.14.42.42v4.75c0,.11.06.17.17.17h3.22c.28,0,.42.14.42.42v1.4c0,.28-.14.42-.42.42Z"/>
    <path class="cls-3" d="M574.26,398.38c-.06-.08-.08-.18-.08-.3v-1.7c0-.28.14-.42.42-.42.88-.03,1.56-.2,2.06-.51.49-.31.9-.86,1.21-1.66s.62-2.01.93-3.65c.03-.06.04-.11.02-.15-.01-.04-.02-.08-.02-.11l-5.39-20.87-.04-.13c0-.23.14-.34.42-.34h2.29c.28,0,.44.13.47.38l3.73,16.67c.03.08.06.13.08.13s.06-.04.08-.13l3.69-16.67c.06-.25.21-.38.47-.38l2.38.04c.14,0,.25.04.32.13.07.08.08.2.02.34l-5.9,22.82c-.51,1.89-1.01,3.29-1.51,4.2s-1.14,1.53-1.93,1.89c-.79.35-1.91.53-3.35.53h-.21c-.06,0-.11-.04-.17-.13Z"/>
  </g>
</svg>